<svg id="Capa_1" enable-background="new 0 0 512 512" height="512" viewBox="0 0 512 512" width="512" xmlns="http://www.w3.org/2000/svg"><path d="m497 181h-120c-8.284 0-15 6.716-15 15v60c0 8.284 6.716 15 15 15h15v196c0 24.813 20.187 45 45 45s45-20.187 45-45v-196h15c8.284 0 15-6.716 15-15v-60c0-8.284-6.716-15-15-15zm-60 301c-8.271 0-15-6.729-15-15v-166h30v166c0 8.271-6.729 15-15 15zm45-241h-15c-8.284 0-15 6.716-15 15v15h-30v-15c0-8.284-6.716-15-15-15h-15v-30h90z"/><path d="m15 512h242c41.355 0 75-33.645 75-75v-362c0-8.284-6.716-15-15-15h-76v-15c0-8.284-6.716-15-15-15h-17.57c-6.191-17.461-22.874-30-42.43-30s-36.239 12.539-42.43 30h-17.57c-8.284 0-15 6.716-15 15v15h-76c-8.284 0-15 6.716-15 15v422c0 8.284 6.716 15 15 15zm257-32.57v-27.44h27.43c-4.527 12.768-14.662 22.913-27.43 27.44zm-151-419.43h15c8.284 0 15-6.716 15-15 0-8.271 6.729-15 15-15s15 6.729 15 15c0 8.284 6.716 15 15 15h15v30h-90zm-91 30h61v15c0 8.284 6.716 15 15 15h120c8.284 0 15-6.716 15-15v-15h61v332h-45c-8.284 0-15 6.716-15 15v45h-212z"/><path d="m155.394 155.393-49.394 49.394-19.394-19.394c-5.857-5.858-15.355-5.858-21.213 0s-5.858 15.355 0 21.213l30 30c2.929 2.93 6.768 4.394 10.607 4.394s7.678-1.464 10.606-4.393l60-60c5.858-5.858 5.858-15.355 0-21.213-5.857-5.859-15.355-5.859-21.212-.001z"/><path d="m155.394 245.393-49.394 49.394-19.394-19.394c-5.857-5.858-15.355-5.858-21.213 0s-5.858 15.355 0 21.213l30 30c2.929 2.93 6.768 4.394 10.607 4.394s7.678-1.464 10.606-4.393l60-60c5.858-5.858 5.858-15.355 0-21.213-5.857-5.859-15.355-5.859-21.212-.001z"/><path d="m155.394 335.393-49.394 49.394-19.394-19.393c-5.857-5.858-15.355-5.858-21.213 0s-5.858 15.355 0 21.213l30 30c2.929 2.929 6.768 4.393 10.607 4.393s7.678-1.464 10.606-4.394l60-60c5.858-5.858 5.858-15.355 0-21.213-5.857-5.858-15.355-5.858-21.212 0z"/><path d="m226 211h31c8.284 0 15-6.716 15-15s-6.716-15-15-15h-31c-8.284 0-15 6.716-15 15s6.716 15 15 15z"/><path d="m226 301h31c8.284 0 15-6.716 15-15s-6.716-15-15-15h-31c-8.284 0-15 6.716-15 15s6.716 15 15 15z"/><path d="m257 391c8.284 0 15-6.716 15-15s-6.716-15-15-15h-31c-8.284 0-15 6.716-15 15s6.716 15 15 15z"/></svg>