<?xml version="1.0" encoding="iso-8859-1"?>
<!-- Generator: Adobe Illustrator 19.0.0, SVG Export Plug-In . SVG Version: 6.00 Build 0)  -->
<svg version="1.1" id="Capa_1" xmlns="http://www.w3.org/2000/svg" xmlns:xlink="http://www.w3.org/1999/xlink" x="0px" y="0px"
	 viewBox="0 0 436.907 436.907" style="enable-background:new 0 0 436.907 436.907;" xml:space="preserve">
<g>
	<g>
		<path d="M279.893,75.093H129.707c-26.348,0-47.787,21.46-47.787,47.84v191.041c0,26.38,21.439,47.84,47.787,47.84h150.187
			c26.348,0,47.787-21.46,47.787-47.84V122.933C327.68,96.553,306.241,75.093,279.893,75.093z M314.027,313.974
			c0,18.854-15.314,34.186-34.133,34.186H129.707c-18.819,0-34.133-15.333-34.133-34.186V122.933
			c0-18.854,15.314-34.186,34.133-34.186h150.187c18.819,0,34.133,15.333,34.133,34.186V313.974z"/>
	</g>
</g>
<g>
	<g>
		<path d="M293.434,80.7l-9.993-54.967C280.822,11.3,267.281,0,252.628,0h-95.654c-14.66,0-28.194,11.307-30.821,25.733h0.007
			L116.168,80.7c-0.367,1.993,0.172,4.04,1.473,5.593c1.294,1.555,3.212,2.454,5.24,2.454h163.84c2.028,0,3.946-0.899,5.241-2.454
			C293.26,84.739,293.801,82.693,293.434,80.7z M131.06,75.093l8.525-46.92h0.007c1.427-7.873,9.387-14.52,17.381-14.52h95.654
			c7.994,0,15.954,6.654,17.388,14.52l8.526,46.92H131.06z"/>
	</g>
</g>
<g>
	<g>
		<path d="M291.96,350.614c-1.294-1.555-3.212-2.454-5.24-2.454H122.88c-2.028,0-3.946,0.899-5.243,2.454
			c-1.299,1.553-1.84,3.599-1.473,5.593l9.987,54.967c2.627,14.426,16.16,25.733,30.821,25.733h95.654
			c14.653,0,28.194-11.3,30.814-25.733l9.992-54.967C293.799,354.214,293.26,352.167,291.96,350.614z M270.015,408.733
			c-1.434,7.868-9.393,14.52-17.388,14.52h-95.654c-7.994,0-15.954-6.647-17.381-14.52h-0.007l-8.526-46.92h147.48L270.015,408.733z
			"/>
	</g>
</g>
<g>
	<g>
		<path d="M335.52,150.187h-14.667c-3.773,0-6.827,3.053-6.827,6.827v61.44c0,3.773,3.053,6.827,6.827,6.827h14.667
			c10.733,0,19.466-8.733,19.466-19.466v-36.161C354.987,158.92,346.254,150.187,335.52,150.187z M341.333,205.814
			c0,3.207-2.606,5.813-5.813,5.813h-7.84V163.84h7.84c3.207,0,5.813,2.606,5.813,5.813V205.814z"/>
	</g>
</g>
<g>
	<g>
		<path d="M249.506,195.512c0.007-0.206,0.007-0.406,0.007-0.613c0-20.893-16.993-37.886-37.886-37.886
			c-16.179,0-30.307,10.32-35.622,25.033c-3.193-0.759-6.46-1.14-9.779-1.14c-23.526,0-42.667,19.14-42.667,42.667
			c0,21.914,16.78,40.281,38.448,42.419c0.587,0.16,1.2,0.247,1.833,0.247h81.241c19.572,0,35.492-15.927,35.492-35.5
			C280.573,212.666,266.999,197.699,249.506,195.512z M245.081,252.587H165.12c-0.273-0.053-0.546-0.087-0.835-0.106
			c-15.179-1-27.073-13.701-27.073-28.908c0-16,13.013-29.013,29.013-29.013c4.087,0,8.067,0.853,11.841,2.546
			c1.973,0.881,4.239,0.773,6.12-0.273c1.888-1.062,3.161-2.941,3.434-5.081c1.567-12.02,11.885-21.086,24.006-21.086
			c13.36,0,24.233,10.873,24.233,24.233c0,1.874-0.234,3.76-0.72,5.767c-0.526,2.167,0.041,4.461,1.521,6.134
			s3.64,2.533,5.907,2.253c0.828-0.094,1.661-0.16,2.514-0.16c12.041,0,21.84,9.8,21.84,21.847S257.121,252.587,245.081,252.587z"/>
	</g>
</g>
<g>
</g>
<g>
</g>
<g>
</g>
<g>
</g>
<g>
</g>
<g>
</g>
<g>
</g>
<g>
</g>
<g>
</g>
<g>
</g>
<g>
</g>
<g>
</g>
<g>
</g>
<g>
</g>
<g>
</g>
</svg>
